{
	"asset":{
		"generator":"Khronos glTF Blender I/O v4.2.70",
		"version":"2.0"
	},
	"scene":0,
	"scenes":[
		{
			"name":"Scene",
			"nodes":[
				4,
				5,
				6,
				7,
				8,
				9,
				11,
				12
			]
		}
	],
	"nodes":[
		{
			"name":"GT500.Rig",
			"rotation":[
				-0.70710688829422,
				0,
				0,
				0.7071066498756409
			],
			"scale":[
				100,
				100.00001525878906,
				100.00001525878906
			]
		},
		{
			"children":[
				0
			],
			"name":"group1"
		},
		{
			"children":[
				1
			],
			"name":"RootNode"
		},
		{
			"children":[
				2
			],
			"name":"c6d9837b7c6c4717b166d10ee732e39e.fbx",
			"rotation":[
				0.70710688829422,
				0,
				0,
				0.7071066498756409
			],
			"scale":[
				0.009999999776482582,
				0.010000000707805157,
				0.010000000707805157
			]
		},
		{
			"children":[
				3
			],
			"name":"Sketchfab_model",
			"rotation":[
				-0.70710688829422,
				0,
				0,
				0.7071066498756409
			]
		},
		{
			"name":"GT500.Wheel.Ft.R",
			"rotation":[
				-0.70710688829422,
				0,
				0,
				0.7071066498756409
			],
			"translation":[
				0,
				0,
				1
			]
		},
		{
			"mesh":0,
			"name":"GT500.Wheel.Bk.R_lambert1_0",
			"translation":[
				0,
				-1.27874755859375,
				-1.9356728792190552
			]
		},
		{
			"mesh":1,
			"name":"GT500.Wheel.Bk.R_glossblack_0",
			"translation":[
				0,
				-1.27874755859375,
				-1.9356728792190552
			]
		},
		{
			"mesh":2,
			"name":"GT500.Wheel.Bk.R_tire_0",
			"translation":[
				0,
				-1.27874755859375,
				-1.9356728792190552
			]
		},
		{
			"mesh":3,
			"name":"GT500.Wheel.Bk.R_plate_0",
			"translation":[
				0,
				-1.27874755859375,
				-1.9356728792190552
			]
		},
		{
			"mesh":4,
			"name":"GT500.WheelBrake.Ft.L_brake_0",
			"translation":[
				-0.031674109399318695,
				0.2813335061073303,
				0.0037616603076457977
			]
		},
		{
			"children":[
				10
			],
			"name":"GT500.WheelBrake.Ft.L",
			"rotation":[
				-0.70710688829422,
				0,
				0,
				0.7071066498756409
			],
			"translation":[
				0,
				0,
				1
			]
		},
		{
			"name":"GT500.WheelBrake.Ft.R",
			"rotation":[
				-0.70710688829422,
				0,
				0,
				0.7071066498756409
			],
			"translation":[
				0,
				0,
				1
			]
		}
	],
	"materials":[
		{
			"doubleSided":true,
			"name":"lambert1",
			"pbrMetallicRoughness":{
				"baseColorFactor":[
					0,
					0,
					0,
					1
				],
				"metallicFactor":0.29104849696159363,
				"roughnessFactor":0.260572224855423
			}
		},
		{
			"doubleSided":true,
			"name":"glossblack",
			"pbrMetallicRoughness":{
				"baseColorFactor":[
					0,
					0,
					0,
					1
				],
				"metallicFactor":0.3276200592517853,
				"roughnessFactor":0.022857213392853737
			}
		},
		{
			"doubleSided":true,
			"name":"tire",
			"pbrMetallicRoughness":{
				"baseColorFactor":[
					0,
					0,
					0,
					1
				],
				"metallicFactor":0.6080018281936646,
				"roughnessFactor":0.42514416575431824
			}
		},
		{
			"doubleSided":true,
			"name":"plate.001",
			"pbrMetallicRoughness":{
				"baseColorFactor":[
					0.06450771540403366,
					0.06450771540403366,
					0.06450771540403366,
					1
				],
				"roughnessFactor":0.3885726034641266
			}
		},
		{
			"doubleSided":true,
			"name":"brake",
			"pbrMetallicRoughness":{
				"baseColorFactor":[
					0.2743431627750397,
					0,
					0,
					1
				],
				"metallicFactor":0.790859580039978,
				"roughnessFactor":0.12038131803274155
			}
		}
	],
	"meshes":[
		{
			"name":"GT500.Wheel.Bk.R_lambert1_0",
			"primitives":[
				{
					"attributes":{
						"POSITION":0,
						"NORMAL":1,
						"TEXCOORD_0":2,
						"TEXCOORD_1":3,
						"TEXCOORD_2":4,
						"TEXCOORD_3":5
					},
					"indices":6,
					"material":0
				}
			]
		},
		{
			"name":"GT500.Wheel.Bk.R_glossblack_0",
			"primitives":[
				{
					"attributes":{
						"POSITION":7,
						"NORMAL":8,
						"TEXCOORD_0":9,
						"TEXCOORD_1":10,
						"TEXCOORD_2":11,
						"TEXCOORD_3":12
					},
					"indices":13,
					"material":1
				}
			]
		},
		{
			"name":"GT500.Wheel.Bk.R_tire_0",
			"primitives":[
				{
					"attributes":{
						"POSITION":14,
						"NORMAL":15,
						"TEXCOORD_0":16,
						"TEXCOORD_1":17,
						"TEXCOORD_2":18,
						"TEXCOORD_3":19
					},
					"indices":20,
					"material":2
				}
			]
		},
		{
			"name":"GT500.Wheel.Bk.R_plate_0",
			"primitives":[
				{
					"attributes":{
						"POSITION":21,
						"NORMAL":22,
						"TEXCOORD_0":23,
						"TEXCOORD_1":24,
						"TEXCOORD_2":25,
						"TEXCOORD_3":26
					},
					"indices":27,
					"material":3
				}
			]
		},
		{
			"name":"GT500.WheelBrake.Ft.L_brake_0",
			"primitives":[
				{
					"attributes":{
						"POSITION":28,
						"NORMAL":29,
						"TEXCOORD_0":30
					},
					"indices":31,
					"material":4
				}
			]
		}
	],
	"accessors":[
		{
			"bufferView":0,
			"componentType":5126,
			"count":3058,
			"max":[
				0.18279211223125458,
				1.5684552192687988,
				2.2112960815429688
			],
			"min":[
				-0.13826027512550354,
				1.002424716949463,
				1.6452555656433105
			],
			"type":"VEC3"
		},
		{
			"bufferView":1,
			"componentType":5126,
			"count":3058,
			"type":"VEC3"
		},
		{
			"bufferView":2,
			"componentType":5126,
			"count":3058,
			"type":"VEC2"
		},
		{
			"bufferView":3,
			"componentType":5126,
			"count":3058,
			"type":"VEC2"
		},
		{
			"bufferView":4,
			"componentType":5126,
			"count":3058,
			"type":"VEC2"
		},
		{
			"bufferView":5,
			"componentType":5126,
			"count":3058,
			"type":"VEC2"
		},
		{
			"bufferView":6,
			"componentType":5123,
			"count":6768,
			"type":"SCALAR"
		},
		{
			"bufferView":7,
			"componentType":5126,
			"count":3122,
			"max":[
				0.18145111203193665,
				1.567084550857544,
				2.208171844482422
			],
			"min":[
				-0.13826027512550354,
				1.0037853717803955,
				1.646525502204895
			],
			"type":"VEC3"
		},
		{
			"bufferView":8,
			"componentType":5126,
			"count":3122,
			"type":"VEC3"
		},
		{
			"bufferView":9,
			"componentType":5126,
			"count":3122,
			"type":"VEC2"
		},
		{
			"bufferView":10,
			"componentType":5126,
			"count":3122,
			"type":"VEC2"
		},
		{
			"bufferView":11,
			"componentType":5126,
			"count":3122,
			"type":"VEC2"
		},
		{
			"bufferView":12,
			"componentType":5126,
			"count":3122,
			"type":"VEC2"
		},
		{
			"bufferView":13,
			"componentType":5123,
			"count":10581,
			"type":"SCALAR"
		},
		{
			"bufferView":14,
			"componentType":5126,
			"count":34690,
			"max":[
				0.18136560916900635,
				1.6341826915740967,
				2.2769343852996826
			],
			"min":[
				-0.13776333630084991,
				0.9367275238037109,
				1.5796095132827759
			],
			"type":"VEC3"
		},
		{
			"bufferView":15,
			"componentType":5126,
			"count":34690,
			"type":"VEC3"
		},
		{
			"bufferView":16,
			"componentType":5126,
			"count":34690,
			"type":"VEC2"
		},
		{
			"bufferView":17,
			"componentType":5126,
			"count":34690,
			"type":"VEC2"
		},
		{
			"bufferView":18,
			"componentType":5126,
			"count":34690,
			"type":"VEC2"
		},
		{
			"bufferView":19,
			"componentType":5126,
			"count":34690,
			"type":"VEC2"
		},
		{
			"bufferView":20,
			"componentType":5123,
			"count":102084,
			"type":"SCALAR"
		},
		{
			"bufferView":21,
			"componentType":5126,
			"count":5109,
			"max":[
				-0.0036608269438147545,
				1.4919123649597168,
				2.1347432136535645
			],
			"min":[
				-0.07773218303918839,
				1.0789576768875122,
				1.7217884063720703
			],
			"type":"VEC3"
		},
		{
			"bufferView":22,
			"componentType":5126,
			"count":5109,
			"type":"VEC3"
		},
		{
			"bufferView":23,
			"componentType":5126,
			"count":5109,
			"type":"VEC2"
		},
		{
			"bufferView":24,
			"componentType":5126,
			"count":5109,
			"type":"VEC2"
		},
		{
			"bufferView":25,
			"componentType":5126,
			"count":5109,
			"type":"VEC2"
		},
		{
			"bufferView":26,
			"componentType":5126,
			"count":5109,
			"type":"VEC2"
		},
		{
			"bufferView":27,
			"componentType":5123,
			"count":5184,
			"type":"SCALAR"
		},
		{
			"bufferView":28,
			"componentType":5126,
			"count":3734,
			"max":[
				0.0636650025844574,
				0.6400793790817261,
				0.17690056562423706
			],
			"min":[
				-0.05726127699017525,
				0.5128217935562134,
				-0.16942235827445984
			],
			"type":"VEC3"
		},
		{
			"bufferView":29,
			"componentType":5126,
			"count":3734,
			"type":"VEC3"
		},
		{
			"bufferView":30,
			"componentType":5126,
			"count":3734,
			"type":"VEC2"
		},
		{
			"bufferView":31,
			"componentType":5123,
			"count":10554,
			"type":"SCALAR"
		}
	],
	"bufferViews":[
		{
			"buffer":0,
			"byteLength":36696,
			"byteOffset":0,
			"target":34962
		},
		{
			"buffer":0,
			"byteLength":36696,
			"byteOffset":36696,
			"target":34962
		},
		{
			"buffer":0,
			"byteLength":24464,
			"byteOffset":73392,
			"target":34962
		},
		{
			"buffer":0,
			"byteLength":24464,
			"byteOffset":97856,
			"target":34962
		},
		{
			"buffer":0,
			"byteLength":24464,
			"byteOffset":122320,
			"target":34962
		},
		{
			"buffer":0,
			"byteLength":24464,
			"byteOffset":146784,
			"target":34962
		},
		{
			"buffer":0,
			"byteLength":13536,
			"byteOffset":171248,
			"target":34963
		},
		{
			"buffer":0,
			"byteLength":37464,
			"byteOffset":184784,
			"target":34962
		},
		{
			"buffer":0,
			"byteLength":37464,
			"byteOffset":222248,
			"target":34962
		},
		{
			"buffer":0,
			"byteLength":24976,
			"byteOffset":259712,
			"target":34962
		},
		{
			"buffer":0,
			"byteLength":24976,
			"byteOffset":284688,
			"target":34962
		},
		{
			"buffer":0,
			"byteLength":24976,
			"byteOffset":309664,
			"target":34962
		},
		{
			"buffer":0,
			"byteLength":24976,
			"byteOffset":334640,
			"target":34962
		},
		{
			"buffer":0,
			"byteLength":21162,
			"byteOffset":359616,
			"target":34963
		},
		{
			"buffer":0,
			"byteLength":416280,
			"byteOffset":380780,
			"target":34962
		},
		{
			"buffer":0,
			"byteLength":416280,
			"byteOffset":797060,
			"target":34962
		},
		{
			"buffer":0,
			"byteLength":277520,
			"byteOffset":1213340,
			"target":34962
		},
		{
			"buffer":0,
			"byteLength":277520,
			"byteOffset":1490860,
			"target":34962
		},
		{
			"buffer":0,
			"byteLength":277520,
			"byteOffset":1768380,
			"target":34962
		},
		{
			"buffer":0,
			"byteLength":277520,
			"byteOffset":2045900,
			"target":34962
		},
		{
			"buffer":0,
			"byteLength":204168,
			"byteOffset":2323420,
			"target":34963
		},
		{
			"buffer":0,
			"byteLength":61308,
			"byteOffset":2527588,
			"target":34962
		},
		{
			"buffer":0,
			"byteLength":61308,
			"byteOffset":2588896,
			"target":34962
		},
		{
			"buffer":0,
			"byteLength":40872,
			"byteOffset":2650204,
			"target":34962
		},
		{
			"buffer":0,
			"byteLength":40872,
			"byteOffset":2691076,
			"target":34962
		},
		{
			"buffer":0,
			"byteLength":40872,
			"byteOffset":2731948,
			"target":34962
		},
		{
			"buffer":0,
			"byteLength":40872,
			"byteOffset":2772820,
			"target":34962
		},
		{
			"buffer":0,
			"byteLength":10368,
			"byteOffset":2813692,
			"target":34963
		},
		{
			"buffer":0,
			"byteLength":44808,
			"byteOffset":2824060,
			"target":34962
		},
		{
			"buffer":0,
			"byteLength":44808,
			"byteOffset":2868868,
			"target":34962
		},
		{
			"buffer":0,
			"byteLength":29872,
			"byteOffset":2913676,
			"target":34962
		},
		{
			"buffer":0,
			"byteLength":21108,
			"byteOffset":2943548,
			"target":34963
		}
	],
	"buffers":[
		{
			"byteLength":2964656,
			"uri":"wheel.bin"
		}
	]
}
