{
	"asset":{
		"generator":"Khronos glTF Blender I/O v4.2.69",
		"version":"2.0"
	},
	"scene":0,
	"scenes":[
		{
			"name":"Scene",
			"nodes":[
				0
			]
		}
	],
	"nodes":[
		{
			"mesh":0,
			"name":"Grim_Reaper",
			"translation":[
				-9.06833553314209,
				0.07625031471252441,
				11.981964111328125
			]
		}
	],
	"meshes":[
		{
			"name":"Grim_Reaper",
			"primitives":[
				{
					"attributes":{
						"POSITION":0,
						"NORMAL":1
					},
					"indices":2
				}
			]
		}
	],
	"accessors":[
		{
			"bufferView":0,
			"componentType":5126,
			"count":27666,
			"max":[
				19.623388290405273,
				27.037546157836914,
				-3.331200122833252
			],
			"min":[
				4.916006565093994,
				1.6689300537109375e-06,
				-15.772640228271484
			],
			"type":"VEC3"
		},
		{
			"bufferView":1,
			"componentType":5126,
			"count":27666,
			"type":"VEC3"
		},
		{
			"bufferView":2,
			"componentType":5123,
			"count":170052,
			"type":"SCALAR"
		}
	],
	"bufferViews":[
		{
			"buffer":0,
			"byteLength":331992,
			"byteOffset":0,
			"target":34962
		},
		{
			"buffer":0,
			"byteLength":331992,
			"byteOffset":331992,
			"target":34962
		},
		{
			"buffer":0,
			"byteLength":340104,
			"byteOffset":663984,
			"target":34963
		}
	],
	"buffers":[
		{
			"byteLength":1004088,
			"uri":"untitled.bin"
		}
	]
}
