{
	"asset":{
		"generator":"Khronos glTF Blender I/O v4.2.70",
		"version":"2.0"
	},
	"scene":0,
	"scenes":[
		{
			"name":"Scene",
			"nodes":[
				0
			]
		}
	],
	"nodes":[
		{
			"mesh":0,
			"name":"Object_140.002",
			"scale":[
				0.800000011920929,
				0.800000011920929,
				0.800000011920929
			]
		}
	],
	"materials":[
		{
			"doubleSided":true,
			"name":"Material_61.001",
			"pbrMetallicRoughness":{
				"roughnessFactor":0.11570246517658234
			}
		},
		{
			"doubleSided":true,
			"name":"Material_60.001",
			"pbrMetallicRoughness":{
				"baseColorFactor":[
					0.011087699793279171,
					0.011087699793279171,
					0.011087699793279171,
					1
				],
				"roughnessFactor":0.4000000059604645
			}
		},
		{
			"doubleSided":true,
			"name":"Material_64.001",
			"pbrMetallicRoughness":{
				"baseColorFactor":[
					0.17370499670505524,
					0.17370499670505524,
					0.17370499670505524,
					1
				],
				"roughnessFactor":0.35379159450531006
			}
		},
		{
			"doubleSided":true,
			"name":"Material_59.001",
			"pbrMetallicRoughness":{
				"baseColorFactor":[
					0.008171440102159977,
					0.008171440102159977,
					0.008171440102159977,
					1
				],
				"roughnessFactor":0.4000000059604645
			}
		}
	],
	"meshes":[
		{
			"name":"Object_79.009",
			"primitives":[
				{
					"attributes":{
						"POSITION":0,
						"NORMAL":1,
						"TEXCOORD_0":2
					},
					"indices":3,
					"material":0
				},
				{
					"attributes":{
						"POSITION":4,
						"NORMAL":5,
						"TEXCOORD_0":6
					},
					"indices":7,
					"material":1
				},
				{
					"attributes":{
						"POSITION":8,
						"NORMAL":9,
						"TEXCOORD_0":10
					},
					"indices":11,
					"material":2
				},
				{
					"attributes":{
						"POSITION":12,
						"NORMAL":13,
						"TEXCOORD_0":14
					},
					"indices":15,
					"material":3
				}
			]
		}
	],
	"accessors":[
		{
			"bufferView":0,
			"componentType":5126,
			"count":3486,
			"max":[
				0.23388159275054932,
				0.44618353247642517,
				0.44293084740638733
			],
			"min":[
				-0.3070557117462158,
				-0.4452040493488312,
				-0.448456734418869
			],
			"type":"VEC3"
		},
		{
			"bufferView":1,
			"componentType":5126,
			"count":3486,
			"type":"VEC3"
		},
		{
			"bufferView":2,
			"componentType":5126,
			"count":3486,
			"type":"VEC2"
		},
		{
			"bufferView":3,
			"componentType":5123,
			"count":9876,
			"type":"SCALAR"
		},
		{
			"bufferView":4,
			"componentType":5126,
			"count":75275,
			"max":[
				0.2405869960784912,
				0.5174155235290527,
				0.5110260844230652
			],
			"min":[
				-0.3125320076942444,
				-0.5157333612442017,
				-0.5161949992179871
			],
			"type":"VEC3"
		},
		{
			"bufferView":5,
			"componentType":5126,
			"count":75275,
			"type":"VEC3"
		},
		{
			"bufferView":6,
			"componentType":5126,
			"count":75275,
			"type":"VEC2"
		},
		{
			"bufferView":7,
			"componentType":5125,
			"count":151188,
			"type":"SCALAR"
		},
		{
			"bufferView":8,
			"componentType":5126,
			"count":20174,
			"max":[
				0.10570403933525085,
				0.31828540563583374,
				0.3146717846393585
			],
			"min":[
				0.03290708735585213,
				-0.31676918268203735,
				-0.3203828036785126
			],
			"type":"VEC3"
		},
		{
			"bufferView":9,
			"componentType":5126,
			"count":20174,
			"type":"VEC3"
		},
		{
			"bufferView":10,
			"componentType":5126,
			"count":20174,
			"type":"VEC2"
		},
		{
			"bufferView":11,
			"componentType":5123,
			"count":32952,
			"type":"SCALAR"
		},
		{
			"bufferView":12,
			"componentType":5126,
			"count":233,
			"max":[
				0.07854926586151123,
				0.1555463671684265,
				0.3412593603134155
			],
			"min":[
				-0.12273459136486053,
				-0.3101552724838257,
				-0.043257880955934525
			],
			"type":"VEC3"
		},
		{
			"bufferView":13,
			"componentType":5126,
			"count":233,
			"type":"VEC3"
		},
		{
			"bufferView":14,
			"componentType":5126,
			"count":233,
			"type":"VEC2"
		},
		{
			"bufferView":15,
			"componentType":5123,
			"count":285,
			"type":"SCALAR"
		}
	],
	"bufferViews":[
		{
			"buffer":0,
			"byteLength":41832,
			"byteOffset":0,
			"target":34962
		},
		{
			"buffer":0,
			"byteLength":41832,
			"byteOffset":41832,
			"target":34962
		},
		{
			"buffer":0,
			"byteLength":27888,
			"byteOffset":83664,
			"target":34962
		},
		{
			"buffer":0,
			"byteLength":19752,
			"byteOffset":111552,
			"target":34963
		},
		{
			"buffer":0,
			"byteLength":903300,
			"byteOffset":131304,
			"target":34962
		},
		{
			"buffer":0,
			"byteLength":903300,
			"byteOffset":1034604,
			"target":34962
		},
		{
			"buffer":0,
			"byteLength":602200,
			"byteOffset":1937904,
			"target":34962
		},
		{
			"buffer":0,
			"byteLength":604752,
			"byteOffset":2540104,
			"target":34963
		},
		{
			"buffer":0,
			"byteLength":242088,
			"byteOffset":3144856,
			"target":34962
		},
		{
			"buffer":0,
			"byteLength":242088,
			"byteOffset":3386944,
			"target":34962
		},
		{
			"buffer":0,
			"byteLength":161392,
			"byteOffset":3629032,
			"target":34962
		},
		{
			"buffer":0,
			"byteLength":65904,
			"byteOffset":3790424,
			"target":34963
		},
		{
			"buffer":0,
			"byteLength":2796,
			"byteOffset":3856328,
			"target":34962
		},
		{
			"buffer":0,
			"byteLength":2796,
			"byteOffset":3859124,
			"target":34962
		},
		{
			"buffer":0,
			"byteLength":1864,
			"byteOffset":3861920,
			"target":34962
		},
		{
			"buffer":0,
			"byteLength":570,
			"byteOffset":3863784,
			"target":34963
		}
	],
	"buffers":[
		{
			"byteLength":3864356,
			"uri":"wheel.bin"
		}
	]
}
