{
	"asset":{
		"generator":"Khronos glTF Blender I/O v4.2.70",
		"version":"2.0"
	},
	"extensionsUsed":[
		"KHR_materials_specular"
	],
	"scene":0,
	"scenes":[
		{
			"name":"Scene",
			"nodes":[
				0,
				1
			]
		}
	],
	"nodes":[
		{
			"mesh":0,
			"name":"Object_8"
		},
		{
			"mesh":1,
			"name":"Object_9"
		}
	],
	"materials":[
		{
			"doubleSided":true,
			"extensions":{
				"KHR_materials_specular":{
					"specularFactor":0.9713779091835022
				}
			},
			"name":"930_rim",
			"normalTexture":{
				"index":0
			},
			"occlusionTexture":{
				"index":1
			},
			"pbrMetallicRoughness":{
				"baseColorTexture":{
					"index":2
				},
				"metallicFactor":0.9410128593444824,
				"metallicRoughnessTexture":{
					"index":1
				},
				"roughnessFactor":0.8620637059211731
			}
		},
		{
			"doubleSided":true,
			"extensions":{
				"KHR_materials_specular":{
					"specularFactor":0.18188662827014923
				}
			},
			"name":"930_tire",
			"normalTexture":{
				"index":3
			},
			"occlusionTexture":{
				"index":4,
				"strength":0.550495445728302
			},
			"pbrMetallicRoughness":{
				"baseColorFactor":[
					0.3580039143562317,
					0.3580039143562317,
					0.3580039143562317,
					1
				],
				"baseColorTexture":{
					"index":5
				},
				"metallicFactor":0.18188662827014923,
				"metallicRoughnessTexture":{
					"index":4
				},
				"roughnessFactor":0.740603506565094
			}
		}
	],
	"meshes":[
		{
			"name":"Object_3",
			"primitives":[
				{
					"attributes":{
						"POSITION":0,
						"NORMAL":1,
						"TEXCOORD_0":2
					},
					"indices":3,
					"material":0
				}
			]
		},
		{
			"name":"Object_4",
			"primitives":[
				{
					"attributes":{
						"POSITION":4,
						"NORMAL":5,
						"TEXCOORD_0":6
					},
					"indices":7,
					"material":1
				}
			]
		}
	],
	"textures":[
		{
			"sampler":0,
			"source":0
		},
		{
			"sampler":0,
			"source":1
		},
		{
			"sampler":0,
			"source":2
		},
		{
			"sampler":0,
			"source":3
		},
		{
			"sampler":0,
			"source":4
		},
		{
			"sampler":0,
			"source":5
		}
	],
	"images":[
		{
			"mimeType":"image/png",
			"name":"930_rim_normal",
			"uri":"930_rim_normal.png"
		},
		{
			"mimeType":"image/png",
			"name":"930_rim_metallicRoughness",
			"uri":"930_rim_metallicRoughness.png"
		},
		{
			"mimeType":"image/png",
			"name":"930_rim_baseColor",
			"uri":"930_rim_baseColor.png"
		},
		{
			"mimeType":"image/png",
			"name":"930_tire_normal",
			"uri":"930_tire_normal.png"
		},
		{
			"mimeType":"image/png",
			"name":"930_tire_metallicRoughness",
			"uri":"930_tire_metallicRoughness.png"
		},
		{
			"mimeType":"image/png",
			"name":"930_tire_baseColor",
			"uri":"930_tire_baseColor.png"
		}
	],
	"accessors":[
		{
			"bufferView":0,
			"componentType":5126,
			"count":5613,
			"max":[
				0.24254468083381653,
				0.3223828077316284,
				0.32235461473464966
			],
			"min":[
				-0.09897866100072861,
				-0.3223726153373718,
				-0.322400838136673
			],
			"type":"VEC3"
		},
		{
			"bufferView":1,
			"componentType":5126,
			"count":5613,
			"type":"VEC3"
		},
		{
			"bufferView":2,
			"componentType":5126,
			"count":5613,
			"type":"VEC2"
		},
		{
			"bufferView":3,
			"componentType":5123,
			"count":24420,
			"type":"SCALAR"
		},
		{
			"bufferView":4,
			"componentType":5126,
			"count":1192,
			"max":[
				0.264157772064209,
				0.4404507577419281,
				0.44042178988456726
			],
			"min":[
				-0.11532935500144958,
				-0.44044068455696106,
				-0.4404693841934204
			],
			"type":"VEC3"
		},
		{
			"bufferView":5,
			"componentType":5126,
			"count":1192,
			"type":"VEC3"
		},
		{
			"bufferView":6,
			"componentType":5126,
			"count":1192,
			"type":"VEC2"
		},
		{
			"bufferView":7,
			"componentType":5123,
			"count":5760,
			"type":"SCALAR"
		}
	],
	"bufferViews":[
		{
			"buffer":0,
			"byteLength":67356,
			"byteOffset":0,
			"target":34962
		},
		{
			"buffer":0,
			"byteLength":67356,
			"byteOffset":67356,
			"target":34962
		},
		{
			"buffer":0,
			"byteLength":44904,
			"byteOffset":134712,
			"target":34962
		},
		{
			"buffer":0,
			"byteLength":48840,
			"byteOffset":179616,
			"target":34963
		},
		{
			"buffer":0,
			"byteLength":14304,
			"byteOffset":228456,
			"target":34962
		},
		{
			"buffer":0,
			"byteLength":14304,
			"byteOffset":242760,
			"target":34962
		},
		{
			"buffer":0,
			"byteLength":9536,
			"byteOffset":257064,
			"target":34962
		},
		{
			"buffer":0,
			"byteLength":11520,
			"byteOffset":266600,
			"target":34963
		}
	],
	"samplers":[
		{
			"magFilter":9729,
			"minFilter":9987
		}
	],
	"buffers":[
		{
			"byteLength":278120,
			"uri":"wheel.bin"
		}
	]
}
